<svg id="Capa_1" data-name="Capa 1" xmlns="http://www.w3.org/2000/svg" width="512" height="512" viewBox="0 0 512 512">
  <g>
    <path d="M223.52,306v42.52H180.68a54.43,54.43,0,0,1-22.18-4.57,57.34,57.34,0,0,1-30.13-30.13,54.39,54.39,0,0,1-4.57-22.17v-128h42.8v128a13.69,13.69,0,0,0,4.11,10,13.18,13.18,0,0,0,9.88,4.25Z"/>
    <path d="M319.44,163.5a55.47,55.47,0,0,1,22.22,4.58,58.19,58.19,0,0,1,18,12.16,59.28,59.28,0,0,1,12.17,18,55.66,55.66,0,0,1,4.57,22.22v71.28a55.39,55.39,0,0,1-4.57,22.17,58.51,58.51,0,0,1-12.17,18A57.35,57.35,0,0,1,341.85,344a54.83,54.83,0,0,1-22.22,4.58H290.91A54.83,54.83,0,0,1,268.69,344a57.34,57.34,0,0,1-30.13-30.13A55.22,55.22,0,0,1,234,291.71V220.34a55.46,55.46,0,0,1,4.57-22.22A57.31,57.31,0,0,1,268.69,168a55.54,55.54,0,0,1,22.22-4.58Zm14.27,56.84a14.22,14.22,0,0,0-14.27-14.18H290.91a14,14,0,0,0-14.26,14v71.51a14,14,0,0,0,4.07,10A13.66,13.66,0,0,0,290.91,306h28.53a13.67,13.67,0,0,0,10.2-4.25,14,14,0,0,0,4.07-10Z"/>
  </g>
</svg>
