<svg id="Capa_1" data-name="Capa 1" xmlns="http://www.w3.org/2000/svg" width="512" height="512" viewBox="0 0 512 512">
  <g>
    <path d="M224.55,240.12a53,53,0,0,1,17,11.61,56.83,56.83,0,0,1,11.46,17,54,54,0,0,1,0,41.89,54.79,54.79,0,0,1-11.46,16.93,54,54,0,0,1-17,11.45,51.51,51.51,0,0,1-20.92,4.24H123.14V303.36h80.49a14.09,14.09,0,0,0,9.59-4,12.79,12.79,0,0,0,4-9.35,13.18,13.18,0,0,0-12.89-13.45h-27.6a52.41,52.41,0,0,1-20.92-4.23,53.59,53.59,0,0,1-17.09-11.94,56.09,56.09,0,0,1-11.46-17,54,54,0,0,1,0-41.88,54.55,54.55,0,0,1,11.46-16.93,53.49,53.49,0,0,1,17-11.46,51.37,51.37,0,0,1,20.92-4.23h53.7v40.36H176.72a13,13,0,0,0-9.58,4,12.68,12.68,0,0,0-4,9.34,13.18,13.18,0,0,0,13.13,13.22h27.35A51.59,51.59,0,0,1,224.55,240.12Z"/>
    <path d="M347.65,168.85a51.92,51.92,0,0,1,21,4.23,53.93,53.93,0,0,1,16.93,11.46A54.55,54.55,0,0,1,397,201.47a54,54,0,0,1,0,41.88,55.91,55.91,0,0,1-11.46,17A53.77,53.77,0,0,1,368.61,272a52.6,52.6,0,0,1-21,4.23H307.28v67H267.36V168.85Zm0,67a13.09,13.09,0,0,0,13.46-12.72v-.73a12.87,12.87,0,0,0-4-9.34,13.19,13.19,0,0,0-9.62-4H307.28v26.71Z"/>
  </g>
</svg>
