<svg xmlns="http://www.w3.org/2000/svg" width="69.65" height="43.69" viewBox="0 0 69.65 43.69">
  <g>
    <path d="M42.5,44.09A13.32,13.32,0,0,1,46.75,47a14.25,14.25,0,0,1,2.87,4.27,13.51,13.51,0,0,1,0,10.49A13.75,13.75,0,0,1,46.75,66a13.56,13.56,0,0,1-4.25,2.87,12.92,12.92,0,0,1-5.24,1.06H17.1v-10H37.26a3.53,3.53,0,0,0,2.4-1,3.19,3.19,0,0,0,1-2.34,3.3,3.3,0,0,0-3.37-3.37H30.52a13.09,13.09,0,0,1-5.24-1.06A13.4,13.4,0,0,1,21,49.17a14,14,0,0,1-2.87-4.27,13.51,13.51,0,0,1,0-10.49A13.69,13.69,0,0,1,21,30.17a13.45,13.45,0,0,1,4.25-2.87,12.92,12.92,0,0,1,5.24-1.06H43.94V36.35H30.52a3.26,3.26,0,0,0-2.4,1,3.19,3.19,0,0,0-1,2.34A3.3,3.3,0,0,0,30.52,43h6.74A12.92,12.92,0,0,1,42.5,44.09Z" transform="translate(-17.1 -26.24)"/>
    <path d="M73.33,26.24a13,13,0,0,1,5.25,1.06,13.52,13.52,0,0,1,4.24,2.87,13.69,13.69,0,0,1,2.87,4.24,13.51,13.51,0,0,1,0,10.49,14,14,0,0,1-2.87,4.27,13.46,13.46,0,0,1-4.24,2.91,13.13,13.13,0,0,1-5.25,1.06H63.22V69.92h-10V26.24H73.33Zm0,16.78a3.28,3.28,0,0,0,3.37-3.37,3.22,3.22,0,0,0-1-2.34,3.3,3.3,0,0,0-2.41-1H63.22V43Z" transform="translate(-17.1 -26.24)"/>
  </g>
</svg>
